<svg xmlns="http://www.w3.org/2000/svg" width="1280" height="780" viewBox="0 0 1280 780">
  <defs>
    <filter id="shadow" x="-10%" y="-10%" width="120%" height="120%"><feDropShadow dx="0" dy="6" stdDeviation="10" flood-color="#172026" flood-opacity="0.08"/></filter>
  </defs>
  <rect width="1280" height="780" fill="#f4f7f5"/>
  <rect x="0" y="0" width="1280" height="78" fill="#fbfcfb" stroke="#d7dde2"/>
  <rect x="54" y="20" width="38" height="38" fill="#fbfcfb" stroke="#0f7a55" stroke-width="2"/>
  <text x="73" y="45" text-anchor="middle" font-family="Segoe UI, Arial" font-size="20" font-weight="800" fill="#0f7a55">N</text>
  <text x="106" y="35" font-family="Segoe UI, Arial" font-size="20" font-weight="700" fill="#172026">NIFTY Options Writing Lab</text>
  <text x="106" y="56" font-family="Segoe UI, Arial" font-size="13" fill="#59656f">Defined-risk research console for expiry and positional option writing</text>
  <rect x="1022" y="22" width="204" height="34" fill="#ffffff" stroke="#d7dde2"/>
  <circle cx="1042" cy="39" r="5" fill="#0f7a55"/>
  <text x="1056" y="44" font-family="Segoe UI, Arial" font-size="13" fill="#172026">Render web service ready</text>
  <rect x="54" y="104" width="760" height="600" rx="8" fill="#ffffff" stroke="#d7dde2" filter="url(#shadow)"/>
  <text x="78" y="138" font-family="Segoe UI, Arial" font-size="16" font-weight="700" fill="#172026">Research Snapshot</text>
  <rect x="78" y="154" width="158" height="92" rx="8" fill="#fff" stroke="#d7dde2"/><text x="96" y="189" font-family="Segoe UI, Arial" font-size="27" font-weight="800" fill="#172026">18L</text><text x="96" y="214" font-family="Segoe UI, Arial" font-size="12" fill="#59656f">Expiry-day intraday</text><text x="96" y="232" font-family="Segoe UI, Arial" font-size="12" fill="#59656f">capital model</text>
  <rect x="254" y="154" width="158" height="92" rx="8" fill="#fff" stroke="#d7dde2"/><text x="272" y="189" font-family="Segoe UI, Arial" font-size="27" font-weight="800" fill="#172026">4L</text><text x="272" y="214" font-family="Segoe UI, Arial" font-size="12" fill="#59656f">Weekly and monthly</text><text x="272" y="232" font-family="Segoe UI, Arial" font-size="12" fill="#59656f">positional capital</text>
  <rect x="430" y="154" width="158" height="92" rx="8" fill="#fff" stroke="#d7dde2"/><text x="448" y="189" font-family="Segoe UI, Arial" font-size="27" font-weight="800" fill="#172026">2</text><text x="448" y="214" font-family="Segoe UI, Arial" font-size="12" fill="#59656f">Starter defined-risk</text><text x="448" y="232" font-family="Segoe UI, Arial" font-size="12" fill="#59656f">strategies</text>
  <rect x="606" y="154" width="158" height="92" rx="8" fill="#fff" stroke="#d7dde2"/><text x="624" y="189" font-family="Segoe UI, Arial" font-size="27" font-weight="800" fill="#172026">5Y</text><text x="624" y="214" font-family="Segoe UI, Arial" font-size="12" fill="#59656f">Historical chain</text><text x="624" y="232" font-family="Segoe UI, Arial" font-size="12" fill="#59656f">backtests</text>
  <line x1="54" y1="270" x2="814" y2="270" stroke="#d7dde2"/>
  <text x="78" y="306" font-family="Segoe UI, Arial" font-size="16" font-weight="700" fill="#172026">Strategy Queue</text>
  <rect x="78" y="322" width="690" height="70" rx="8" fill="#fff" stroke="#d7dde2"/>
  <text x="96" y="350" font-family="Segoe UI, Arial" font-size="15" font-weight="700" fill="#172026">Expiry Intraday Iron Fly Defined Risk</text>
  <text x="96" y="374" font-family="Segoe UI, Arial" font-size="13" fill="#59656f">Iron Fly | Entry DTE 0 | Wing width 300 | Max lots 12</text>
  <rect x="676" y="342" width="72" height="30" fill="#fafafa" stroke="#d7dde2"/><text x="712" y="362" text-anchor="middle" font-family="Segoe UI, Arial" font-size="12" fill="#172026">Risk 3.5%</text>
  <rect x="78" y="406" width="690" height="70" rx="8" fill="#fff" stroke="#d7dde2"/>
  <text x="96" y="434" font-family="Segoe UI, Arial" font-size="15" font-weight="700" fill="#172026">Weekly Positional Iron Condor Defined Risk</text>
  <text x="96" y="458" font-family="Segoe UI, Arial" font-size="13" fill="#59656f">Iron Condor | Entry DTE 3 | Wing width 300 | Max lots 3</text>
  <rect x="676" y="426" width="72" height="30" fill="#fafafa" stroke="#d7dde2"/><text x="712" y="446" text-anchor="middle" font-family="Segoe UI, Arial" font-size="12" fill="#172026">Risk 6.0%</text>
  <line x1="54" y1="500" x2="814" y2="500" stroke="#d7dde2"/>
  <text x="78" y="536" font-family="Segoe UI, Arial" font-size="16" font-weight="700" fill="#172026">Equity Curve Preview</text>
  <rect x="78" y="552" width="690" height="120" rx="8" fill="#fbfcfb" stroke="#d7dde2"/>
  <rect x="102" y="620" width="31" height="34" rx="4" fill="#0e7490" opacity="0.9"/><rect x="153" y="615" width="31" height="39" rx="4" fill="#243746" opacity="0.9"/><rect x="204" y="610" width="31" height="44" rx="4" fill="#243746" opacity="0.9"/><rect x="255" y="612" width="31" height="42" rx="4" fill="#0f7a55" opacity="0.9"/><rect x="306" y="601" width="31" height="53" rx="4" fill="#0e7490" opacity="0.9"/><rect x="357" y="596" width="31" height="58" rx="4" fill="#243746" opacity="0.9"/><rect x="408" y="605" width="31" height="49" rx="4" fill="#0f7a55" opacity="0.9"/><rect x="459" y="588" width="31" height="66" rx="4" fill="#243746" opacity="0.9"/><rect x="510" y="582" width="31" height="72" rx="4" fill="#0e7490" opacity="0.9"/><rect x="561" y="586" width="31" height="68" rx="4" fill="#0f7a55" opacity="0.9"/><rect x="612" y="574" width="31" height="80" rx="4" fill="#243746" opacity="0.9"/><rect x="663" y="566" width="31" height="88" rx="4" fill="#243746" opacity="0.9"/>
  <rect x="842" y="104" width="384" height="600" rx="8" fill="#ffffff" stroke="#d7dde2" filter="url(#shadow)"/>
  <text x="866" y="138" font-family="Segoe UI, Arial" font-size="16" font-weight="700" fill="#172026">Data Pipeline</text>
  <rect x="866" y="156" width="28" height="28" fill="#fff" stroke="#d7dde2"/><text x="880" y="175" text-anchor="middle" font-family="Segoe UI, Arial" font-size="13" font-weight="700" fill="#0e7490">1</text><text x="906" y="171" font-family="Segoe UI, Arial" font-size="13" font-weight="700" fill="#172026">Kite capture</text><text x="906" y="191" font-family="Segoe UI, Arial" font-size="12" fill="#59656f">Spot candles and active option contracts.</text>
  <rect x="866" y="214" width="28" height="28" fill="#fff" stroke="#d7dde2"/><text x="880" y="233" text-anchor="middle" font-family="Segoe UI, Arial" font-size="13" font-weight="700" fill="#0e7490">2</text><text x="906" y="229" font-family="Segoe UI, Arial" font-size="13" font-weight="700" fill="#172026">Historical chain</text><text x="906" y="249" font-family="Segoe UI, Arial" font-size="12" fill="#59656f">Expired option data for five-year tests.</text>
  <rect x="866" y="272" width="28" height="28" fill="#fff" stroke="#d7dde2"/><text x="880" y="291" text-anchor="middle" font-family="Segoe UI, Arial" font-size="13" font-weight="700" fill="#0e7490">3</text><text x="906" y="287" font-family="Segoe UI, Arial" font-size="13" font-weight="700" fill="#172026">Institutional filters</text><text x="906" y="307" font-family="Segoe UI, Arial" font-size="12" fill="#59656f">Participant OI, FII derivatives, India VIX.</text>
  <rect x="866" y="330" width="28" height="28" fill="#fff" stroke="#d7dde2"/><text x="880" y="349" text-anchor="middle" font-family="Segoe UI, Arial" font-size="13" font-weight="700" fill="#0e7490">4</text><text x="906" y="345" font-family="Segoe UI, Arial" font-size="13" font-weight="700" fill="#172026">Backtest report</text><text x="906" y="365" font-family="Segoe UI, Arial" font-size="12" fill="#59656f">Win rate, drawdown, charges, and tail risk.</text>
  <line x1="842" y1="400" x2="1226" y2="400" stroke="#d7dde2"/>
  <text x="866" y="436" font-family="Segoe UI, Arial" font-size="16" font-weight="700" fill="#172026">Risk Controls</text>
  <text x="866" y="471" font-family="Segoe UI, Arial" font-size="13" fill="#172026">Defined-risk spreads</text><rect x="1092" y="453" width="92" height="24" rx="12" fill="#eef7f1"/><text x="1138" y="469" text-anchor="middle" font-family="Segoe UI, Arial" font-size="12" fill="#0f7a55">On</text><line x1="866" y1="486" x2="1184" y2="486" stroke="#d7dde2"/>
  <text x="866" y="509" font-family="Segoe UI, Arial" font-size="13" fill="#172026">Zerodha charges</text><rect x="1092" y="491" width="92" height="24" rx="12" fill="#eef7f1"/><text x="1138" y="507" text-anchor="middle" font-family="Segoe UI, Arial" font-size="12" fill="#0f7a55">On</text><line x1="866" y1="524" x2="1184" y2="524" stroke="#d7dde2"/>
  <text x="866" y="547" font-family="Segoe UI, Arial" font-size="13" fill="#172026">Data availability</text><rect x="1092" y="529" width="92" height="24" rx="12" fill="#fff7e8"/><text x="1138" y="545" text-anchor="middle" font-family="Segoe UI, Arial" font-size="12" fill="#b7791f">Needs feed</text><line x1="866" y1="562" x2="1184" y2="562" stroke="#d7dde2"/>
  <text x="866" y="585" font-family="Segoe UI, Arial" font-size="13" fill="#172026">Live trade routing</text><rect x="1092" y="567" width="92" height="24" rx="12" fill="#fff7e8"/><text x="1138" y="583" text-anchor="middle" font-family="Segoe UI, Arial" font-size="12" fill="#b7791f">Off</text><line x1="866" y1="600" x2="1184" y2="600" stroke="#d7dde2"/>
  <line x1="842" y1="606" x2="1226" y2="606" stroke="#d7dde2"/>
  <text x="866" y="642" font-family="Segoe UI, Arial" font-size="16" font-weight="700" fill="#172026">Render Start</text>
  <rect x="866" y="658" width="318" height="36" rx="8" fill="#111820"/>
  <text x="886" y="681" font-family="Consolas, monospace" font-size="13" fill="#e9f2ef">gunicorn app:app</text>
</svg>
